<svg width="80" height="80" viewBox="0 0 80 80" fill="none" xmlns="http://www.w3.org/2000/svg">
<path d="M70.0286 55.0286V22.0286C70.0286 20.7026 69.5018 19.4308 68.5643 18.4928C67.6264 17.5553 66.3545 17.0286 65.0286 17.0286H15.0286C13.7026 17.0286 12.4308 17.5554 11.4928 18.4928C10.5553 19.4307 10.0286 20.7026 10.0286 22.0286V55.0286C9.47634 55.0286 9.02856 55.4763 9.02856 56.0286C9.02856 57.8852 9.76606 59.6656 11.079 60.9782C12.3914 62.2911 14.1718 63.0286 16.0286 63.0286H64.0286C65.8853 63.0286 67.6656 62.2911 68.9782 60.9782C70.2911 59.6657 71.0286 57.8854 71.0286 56.0286C71.0286 55.7634 70.9232 55.5089 70.7357 55.3214C70.5482 55.1339 70.2937 55.0286 70.0286 55.0286ZM12.0286 22.0286C12.0286 21.233 12.3446 20.4696 12.9071 19.9072C13.4696 19.3448 14.2331 19.0286 15.0285 19.0286H65.0285C65.824 19.0286 66.5875 19.3447 67.1499 19.9072C67.7123 20.4697 68.0285 21.2331 68.0285 22.0286V55.0286H45.0284C44.4762 55.0286 44.0284 55.4763 44.0284 56.0286V57.0286H36.0284V56.0286C36.0284 55.7634 35.9231 55.5089 35.7356 55.3214C35.5481 55.1339 35.2936 55.0286 35.0284 55.0286H29.0284V49.0286H36.0284V50.0286H38.0284V40.0286H39.0284C39.4807 40.0192 39.87 39.7076 39.9784 39.2687C42.915 39.9491 45.7543 40.9973 48.4285 42.3884C49.3187 44.0286 50.5883 45.0286 52.0285 45.0286C54.8786 45.0286 57.0285 41.1586 57.0285 36.0286C57.0285 30.8987 54.8786 27.0286 52.0285 27.0286C50.5883 27.0286 49.3187 28.0286 48.4285 29.6689C45.77 31.0559 42.9482 32.1042 40.0285 32.7885C39.9156 32.3314 39.499 32.0149 39.0285 32.0287H35.0285C34.4763 32.0287 34.0285 32.4765 34.0285 33.0287V33.1287C32.2883 33.4586 31.0285 34.6086 31.0285 36.0287C31.0285 37.4488 32.2883 38.5988 34.0285 38.9287V39.0287C34.0285 39.2939 34.1339 39.5483 34.3214 39.7358C34.5089 39.9233 34.7633 40.0287 35.0285 40.0287H36.0285V43.0287H21.0285C19.7026 43.0287 18.4308 43.5555 17.4927 44.4929C16.5552 45.4309 16.0285 46.7028 16.0285 48.0287V55.0287H12.0285L12.0286 22.0286ZM28.0286 47.0286C27.4763 47.0286 27.0286 47.4763 27.0286 48.0286V55.0286H18.0286V48.0286C18.0286 47.233 18.3446 46.4696 18.9071 45.9072C19.4696 45.3448 20.2331 45.0286 21.0285 45.0286H36.0285V47.0286L28.0286 47.0286ZM36.0286 38.0286V34.0286H38.0286V38.0286H36.0286ZM47.4187 39.6487C45.0335 38.6201 42.5598 37.8103 40.0286 37.2286V34.8286C42.5598 34.2469 45.0335 33.437 47.4187 32.4084C46.8986 34.7937 46.8986 37.2633 47.4187 39.6487ZM49.5187 32.3388C50.0986 30.3388 51.0986 29.029 52.0286 29.029C53.4487 29.029 55.0286 32.029 55.0286 36.029C55.0286 40.029 53.4487 43.029 52.0286 43.029C51.0987 43.029 50.0986 41.7388 49.5187 39.7192V39.7187C50.4942 39.3103 51.2683 38.5326 51.6719 37.5549C52.0754 36.5772 52.0754 35.4799 51.6719 34.5022C51.2683 33.5245 50.4942 32.7469 49.5187 32.3383V32.3388ZM50.0286 36.0286C50.025 36.6978 49.6875 37.3206 49.1286 37.6883C48.9951 36.5857 48.9951 35.4714 49.1286 34.3687C49.6875 34.7365 50.025 35.3593 50.0286 36.0284V36.0286ZM34.0286 35.1786V36.8786C33.3986 36.6687 33.0286 36.3085 33.0286 36.0286C33.0286 35.7487 33.3986 35.3884 34.0286 35.1786ZM64.0286 61.0288H16.0286C14.8759 61.0293 13.7585 60.6311 12.8656 59.9021C11.9727 59.173 11.3588 58.1583 11.1286 57.0288H34.0291V58.0288C34.0291 58.294 34.1345 58.5484 34.322 58.7359C34.5095 58.9234 34.7639 59.0288 35.0291 59.0288H45.0291C45.2943 59.0288 45.5488 58.9234 45.7363 58.7359C45.9238 58.5484 46.0291 58.294 46.0291 58.0288V57.0288H68.9297C68.6993 58.1583 68.0855 59.173 67.1927 59.9021C66.2998 60.6311 65.1824 61.0293 64.0297 61.0288H64.0286Z" fill="#282828"/>
<path d="M24.0286 42.0286C25.3545 42.0286 26.6263 41.5018 27.5643 40.5643C28.5018 39.6264 29.0286 38.3545 29.0286 37.0286C29.0286 35.7026 28.5018 34.4308 27.5643 33.4928C26.6264 32.5553 25.3545 32.0286 24.0286 32.0286C22.7026 32.0286 21.4308 32.5554 20.4928 33.4928C19.5553 34.4307 19.0286 35.7026 19.0286 37.0286C19.0286 38.3545 19.5554 39.6263 20.4928 40.5643C21.4307 41.5018 22.7026 42.0286 24.0286 42.0286ZM24.0286 34.0286C24.8241 34.0286 25.5875 34.3446 26.1499 34.9071C26.7123 35.4696 27.0285 36.2331 27.0285 37.0285C27.0285 37.8239 26.7124 38.5875 26.1499 39.1499C25.5874 39.7123 24.824 40.0284 24.0286 40.0284C23.2331 40.0284 22.4696 39.7124 21.9072 39.1499C21.3448 38.5874 21.0286 37.8239 21.0286 37.0285C21.0286 36.2331 21.3447 35.4695 21.9072 34.9071C22.4697 34.3447 23.2331 34.0286 24.0286 34.0286Z" fill="#282828"/>
<path d="M59.0286 35.0286H63.0286V37.0286H59.0286V35.0286Z" fill="#282828"/>
<path d="M57.4915 40.3166L58.9057 38.9023L61.7343 41.7309L60.32 43.1452L57.4915 40.3166Z" fill="#282828"/>
<path d="M57.5005 31.7292L60.3291 28.9006L61.7433 30.3149L58.9148 33.1435L57.5005 31.7292Z" fill="#282828"/>
</svg>
