<svg width="80" height="80" viewBox="0 0 80 80" fill="none" xmlns="http://www.w3.org/2000/svg">
<path d="M52.5496 38.5489L64.3645 26.7363C64.5757 26.5243 64.6993 26.2461 64.7274 25.9511C65.0109 25.9229 65.2882 25.806 65.5051 25.5881C68.5918 22.5015 68.5918 17.4792 65.5051 14.3926C64.01 12.8961 62.022 12.0724 59.907 12.0724C57.7918 12.0724 55.8039 12.8965 54.3088 14.3926C54.0869 14.6144 53.9695 14.8984 53.9445 15.1876C53.6552 15.2144 53.3744 15.3265 53.165 15.5363L41.3525 27.3512L24.8759 10.8746C24.396 10.3933 23.5455 10.3947 23.0652 10.8746L10.8892 23.0552C10.3892 23.5552 10.3892 24.3655 10.8892 24.865L27.3623 41.3416L16.6824 52.0219C16.5512 52.1532 16.4503 52.3108 16.3869 52.4844L12.4414 63.1943C11.6414 65.3594 12.366 66.5273 12.8691 67.0304C13.2102 67.3723 13.857 67.8156 14.915 67.8156C15.4155 67.8156 16.0083 67.7165 16.703 67.4589L27.3878 63.5228C27.5651 63.4621 27.732 63.3608 27.8735 63.2193L27.8749 63.2179L38.558 52.5371L55.0322 69.0114C55.2724 69.2516 55.5979 69.3864 55.9372 69.3864C56.2769 69.3864 56.6028 69.2516 56.843 69.0114L69.0201 56.8308C69.5201 56.3308 69.5201 55.5205 69.0201 55.021L52.5496 38.5489ZM59.9068 14.6335C61.3372 14.6335 62.6827 15.1911 63.6943 16.2035C65.7827 18.2923 65.7827 21.6902 63.6943 23.7794C63.6113 23.8624 63.5466 23.9566 63.4917 24.0544L55.8443 16.4062C55.9421 16.3504 56.0363 16.2856 56.1193 16.2026C57.1309 15.191 58.476 14.6335 59.9069 14.6335H59.9068ZM26.3068 36.6643L29.6 33.3702C30.1 32.8702 30.1 32.0594 29.6 31.5594C29.1 31.0603 28.2898 31.0594 27.7893 31.5594L24.4965 34.8536L20.0595 30.4156L23.351 27.1241C23.851 26.6241 23.851 25.8138 23.351 25.3143C22.851 24.8143 22.0403 24.8143 21.5412 25.3143L18.2497 28.6058L13.6045 23.9599L23.971 13.5898L39.5424 29.1612L29.1733 39.5308L26.3068 36.6643ZM26.9706 60.5032L22.7594 56.2912C22.2603 55.7912 21.4487 55.7912 20.9496 56.2912C20.4496 56.7912 20.4496 57.6015 20.9496 58.101L24.6514 61.8033L15.8179 65.0578C15.0854 65.3279 14.7282 65.2507 14.6863 65.2275C14.6505 65.1726 14.5724 64.8154 14.8438 64.0806V64.0793L18.6921 53.6333L30.0541 42.2713C30.0626 42.2637 30.072 42.2579 30.0805 42.2503C30.089 42.2427 30.0939 42.2324 30.1015 42.2239L42.2043 30.1199C42.2231 30.1034 42.244 30.0909 42.2619 30.0726C42.2798 30.0548 42.2918 30.0338 42.3092 30.015L54.0692 18.2539L61.6474 25.8329L37.6977 49.7803C37.6825 49.7946 37.6642 49.8044 37.649 49.82C37.6338 49.8352 37.6236 49.8526 37.6093 49.8682L26.9706 60.5032ZM55.9375 66.2965L51.2893 61.6487L54.5825 58.3554C55.0825 57.8554 55.0825 57.0451 54.5825 56.5456C54.0834 56.0456 53.2718 56.0456 52.7727 56.5456L49.4794 59.8389L45.0438 55.4023L48.3379 52.1081C48.8379 51.6081 48.8379 50.7978 48.3379 50.2983C47.8388 49.7983 47.0272 49.7983 46.5281 50.2983L43.2339 53.5924L40.3688 50.7278L50.7393 40.359L66.305 55.9258L55.9375 66.2965Z" fill="#282828"/>
</svg>
