<svg width="80" height="80" viewBox="0 0 80 80" fill="none" xmlns="http://www.w3.org/2000/svg">
<path d="M15.1872 14.875H57.3118C57.5605 14.875 57.7988 14.7763 57.9743 14.6L60.4743 12.1C60.6502 11.9245 60.7488 11.6862 60.7488 11.4375C60.7488 11.1888 60.6502 10.9504 60.4743 10.775L57.9743 8.27499C57.7988 8.09865 57.5605 8 57.3118 8H15.1872C14.6073 8.00045 14.0511 8.23125 13.6413 8.64152C13.231 9.05134 13.0002 9.60759 12.9998 10.1875V12.6875C13.0002 13.2674 13.231 13.8236 13.6413 14.2334C14.0511 14.6437 14.6073 14.8745 15.1872 14.8749V14.875ZM19.8748 9.87499H56.9239L58.4864 11.4375L56.9239 13H19.8748V9.87499ZM14.8748 10.1875C14.8748 10.0147 15.0145 9.87499 15.1873 9.87499H17.9997V13H15.1873C15.0145 13 14.8748 12.8603 14.8748 12.6875V10.1875Z" fill="#282828"/>
<path d="M28.937 58.8755H15.1873C14.6694 58.8755 14.2498 59.2951 14.2498 59.813C14.2498 60.3308 14.6694 60.7505 15.1873 60.7505H28.937C29.4548 60.7505 29.8745 60.3308 29.8745 59.813C29.8745 59.2951 29.4548 58.8755 28.937 58.8755Z" fill="#282828"/>
<path d="M28.937 53.8755H19.1245C18.6067 53.8755 18.187 54.2951 18.187 54.813C18.187 55.3309 18.6067 55.7505 19.1245 55.7505H28.937C29.4548 55.7505 29.8745 55.3309 29.8745 54.813C29.8745 54.2951 29.4548 53.8755 28.937 53.8755Z" fill="#282828"/>
<path d="M15.1873 55.7497H15.5408C16.0587 55.7497 16.4783 55.3301 16.4783 54.8122C16.4783 54.2944 16.0587 53.8748 15.5408 53.8748H15.1873C14.6694 53.8748 14.2498 54.2944 14.2498 54.8122C14.2498 55.3301 14.6694 55.7497 15.1873 55.7497Z" fill="#282828"/>
<path d="M40.1871 53.8755H35.187C33.9589 53.8755 32.8241 54.5308 32.2102 55.5942C31.5959 56.6576 31.5959 57.9683 32.2102 59.0317C32.8241 60.0951 33.9589 60.7505 35.187 60.7505H40.1871C41.4152 60.7505 42.55 60.0951 43.1639 59.0317C43.7781 57.9683 43.7781 56.6577 43.1639 55.5942C42.55 54.5308 41.4152 53.8755 40.1871 53.8755ZM40.1871 58.8755H35.187C34.3241 58.8755 33.6245 58.1759 33.6245 57.313C33.6245 56.45 34.3241 55.7505 35.187 55.7505H40.1871C41.05 55.7505 41.7496 56.45 41.7496 57.313C41.7496 58.1759 41.05 58.8755 40.1871 58.8755Z" fill="#282828"/>
<path d="M42.6876 28.8755H15.1882C14.6083 28.8759 14.052 29.1067 13.6423 29.517C13.232 29.9268 13.0012 30.4831 13.0007 31.0629V48.5624C13.0012 49.1423 13.232 49.6985 13.6423 50.1083C14.0521 50.5186 14.6083 50.7494 15.1882 50.7498H42.6876C43.2676 50.7494 43.8238 50.5186 44.2336 50.1083C44.6438 49.6985 44.8747 49.1422 44.8751 48.5624V31.0629C44.8747 30.483 44.6439 29.9268 44.2336 29.517C43.8238 29.1067 43.2675 28.8759 42.6876 28.8755ZM43.0001 48.5635C43.0001 48.6465 42.9671 48.726 42.9086 48.7845C42.8501 48.8429 42.7707 48.876 42.6876 48.876H15.1882C15.0154 48.876 14.8757 48.7362 14.8757 48.5635V31.0641C14.8757 30.8913 15.0154 30.7516 15.1882 30.7516H42.6876C42.7707 30.7516 42.8501 30.7846 42.9086 30.8431C42.9671 30.9016 43.0001 30.981 43.0001 31.0641V48.5635Z" fill="#282828"/>
<path d="M17.6877 34.5005H20.1877C20.7056 34.5005 21.1252 34.0808 21.1252 33.563C21.1252 33.0451 20.7056 32.6255 20.1877 32.6255H17.6877C17.1699 32.6255 16.7502 33.0451 16.7502 33.563C16.7502 34.0808 17.1699 34.5005 17.6877 34.5005Z" fill="#282828"/>
<path d="M34.3746 37.1326C33.9456 36.5852 33.2818 36.2745 32.5866 36.296C31.8911 36.3174 31.2478 36.6683 30.8531 37.241L28.0969 41.241C28.0424 41.32 27.9549 41.3692 27.8594 41.375C27.7639 41.3808 27.671 41.3428 27.6072 41.2714L25.942 39.4C25.5344 38.9406 24.9523 38.6736 24.338 38.6647C23.7238 38.6558 23.134 38.9062 22.7135 39.3535L16.9996 45.42C16.7425 45.6928 16.6733 46.0928 16.8228 46.4365C16.9724 46.7803 17.3121 47.0017 17.6871 46.9999H40.1877C40.5466 46.9999 40.8739 46.795 41.0306 46.4727C41.1877 46.1499 41.1466 45.766 40.9252 45.4839L34.3746 37.1326ZM19.8569 45.125L24.0784 40.6388H24.0779C24.1387 40.575 24.2226 40.5393 24.3105 40.5402C24.3985 40.5411 24.4815 40.579 24.5395 40.6451L26.1985 42.5125H26.1981C26.6445 43.0152 27.2967 43.2844 27.9672 43.2438C28.6382 43.2027 29.2529 42.8558 29.6342 42.3027L32.3841 38.3027C32.4408 38.2197 32.5341 38.1692 32.6341 38.1674C32.7328 38.1661 32.8261 38.2125 32.8841 38.2924L38.2591 45.125L19.8569 45.125Z" fill="#282828"/>
<path d="M69.8123 36.375H65.7498V21.063C65.7493 20.483 65.5185 19.9268 65.1082 19.517C64.6984 19.1067 64.1422 18.8759 63.5623 18.8755H10.1875C9.60755 18.8759 9.0513 19.1067 8.64152 19.517C8.23126 19.9268 8.00045 20.4831 8 21.063V63.5635C8.00045 64.1434 8.23125 64.6997 8.64152 65.1095C9.05134 65.5197 9.60759 65.7505 10.1875 65.751H50.1246V69.8135C50.125 70.3934 50.3558 70.9497 50.7661 71.3594C51.1759 71.7697 51.7322 72.0005 52.312 72.001H69.8115C70.3914 72.0005 70.9476 71.7697 71.3574 71.3594C71.7677 70.9496 71.9985 70.3934 71.9989 69.8135V38.5632C71.9985 37.9833 71.7677 37.4271 71.3574 37.0173C70.9476 36.607 70.3913 36.3762 69.8115 36.3758L69.8123 36.375ZM10.1872 20.7498H63.562C63.645 20.7498 63.7245 20.7828 63.783 20.8413C63.8414 20.8998 63.8745 20.9793 63.8745 21.0623V23.8748H9.87451V21.0623C9.87451 20.8895 10.0142 20.7498 10.187 20.7498L10.1872 20.7498ZM10.1872 63.8744C10.0144 63.8744 9.87465 63.7346 9.87465 63.5619V25.7493H63.8746V36.3743H52.3123C51.7324 36.3748 51.1762 36.6056 50.7664 37.0159C50.3561 37.4257 50.1253 37.9819 50.1249 38.5618V63.8738L10.1872 63.8744ZM70.1243 69.8119C70.1243 69.8949 70.0912 69.9744 70.0328 70.0329C69.9743 70.0913 69.8948 70.1244 69.8118 70.1244H52.3123C52.1396 70.1244 51.9998 69.9846 51.9998 69.8119V68.2807H70.1244L70.1243 69.8119ZM70.1243 66.4056H51.9997V38.5622C51.9997 38.3894 52.1394 38.2496 52.3122 38.2496H69.8116C69.8947 38.2496 69.9741 38.2827 70.0326 38.3412C70.0911 38.3996 70.1241 38.4791 70.1241 38.5621L70.1243 66.4056Z" fill="#282828"/>
<path d="M66.0627 53.9062H56.0627C55.4828 53.9067 54.9265 54.1375 54.5168 54.5478C54.1065 54.9576 53.8757 55.5138 53.8752 56.0937V62.3438C53.8757 62.9237 54.1065 63.4799 54.5168 63.8897C54.9266 64.3 55.4828 64.5308 56.0627 64.5312H66.0627C66.6426 64.5308 67.1988 64.3 67.6086 63.8897C68.0189 63.4799 68.2497 62.9236 68.2501 62.3438V56.0937C68.2497 55.5138 68.0189 54.9576 67.6086 54.5478C67.1988 54.1375 66.6426 53.9067 66.0627 53.9062ZM66.3752 62.3437C66.3752 62.4268 66.3421 62.5062 66.2837 62.5647C66.2252 62.6232 66.1457 62.6562 66.0627 62.6562H56.0627C55.8899 62.6562 55.7502 62.5165 55.7502 62.3437V56.0937C55.7502 55.9209 55.8899 55.7812 56.0627 55.7812H66.0627C66.1457 55.7812 66.2252 55.8142 66.2837 55.8727C66.3421 55.9312 66.3752 56.0106 66.3752 56.0937V62.3437Z" fill="#282828"/>
<path d="M67.3116 40.1245H54.811C54.2932 40.1245 53.8735 40.5442 53.8735 41.062V51.062C53.8735 51.5799 54.2932 51.9995 54.811 51.9995H67.3116C67.5603 51.9995 67.7987 51.9009 67.9745 51.725C68.1504 51.5491 68.2491 51.3107 68.2491 51.062V41.062C68.2491 40.8133 68.1504 40.575 67.9745 40.3991C67.7987 40.2232 67.5603 40.1245 67.3116 40.1245ZM66.3741 50.1245H55.7491V41.9995H66.3741V50.1245Z" fill="#282828"/>
<path d="M57.8124 48.5005C58.1231 48.9148 58.7106 48.9988 59.1248 48.688L61.0623 47.2353L62.9998 48.688C63.4141 48.9988 64.0016 48.9148 64.3122 48.5005C64.6229 48.0863 64.539 47.4988 64.1247 47.1881L62.6247 46.0631L64.1247 44.9381C64.539 44.6273 64.623 44.0398 64.3122 43.6256C64.0015 43.2113 63.414 43.1274 62.9998 43.4381L61.0623 44.8917L59.1248 43.4381C58.7105 43.1274 58.123 43.2113 57.8124 43.6256C57.5017 44.0399 57.5856 44.6274 57.9999 44.9381L59.4999 46.0631L57.9999 47.1881C57.5856 47.4988 57.5016 48.0863 57.8124 48.5005V48.5005Z" fill="#282828"/>
<path d="M51.0625 30.7498H59.8124C60.3303 30.7498 60.7499 30.3301 60.7499 29.8123C60.7499 29.2944 60.3303 28.8748 59.8124 28.8748H51.0625C50.5446 28.8748 50.125 29.2944 50.125 29.8123C50.125 30.3301 50.5446 30.7498 51.0625 30.7498V30.7498Z" fill="#282828"/>
</svg>
