<svg width="80" height="80" viewBox="0 0 80 80" fill="none" xmlns="http://www.w3.org/2000/svg">
<path d="M61.3381 8C58.7421 8.00446 56.2363 8.95402 54.2903 10.6719C52.3439 12.3897 51.0898 14.7581 50.7631 17.3335H26.6717C25.9355 17.3335 25.3386 17.9304 25.3386 18.6665C25.3386 19.4031 25.9355 20 26.6717 20H50.6717V61.3337C50.6717 62.0699 51.269 62.6667 52.0052 62.6667C52.7413 62.6667 53.3386 62.0699 53.3386 61.3337C53.3386 59.2119 54.1815 57.177 55.6815 55.6766C57.182 54.1766 59.2168 53.3337 61.3387 53.3337C63.46 53.3337 65.4949 54.1766 66.9953 55.6766C68.4958 57.177 69.3387 59.2119 69.3387 61.3337C69.3387 63.4551 68.4958 65.4899 66.9953 66.9904C65.4949 68.4909 63.46 69.3337 61.3387 69.3337H14.6792C13.6006 69.3926 12.548 68.9904 11.7832 68.2275C11.0184 67.4645 10.6144 66.4123 10.6711 65.3337V24C10.6711 23.2639 10.0743 22.6665 9.33811 22.6665C8.60151 22.6665 8.00463 23.2639 8.00463 24V65.3337C7.93677 67.1217 8.61758 68.8569 9.8828 70.1221C11.1479 71.3872 12.8833 72.068 14.6711 72.0003H61.3386C63.8154 71.9976 66.2145 71.1342 68.1252 69.5574C70.036 67.9806 71.3391 65.7891 71.8119 63.3574C71.9386 63.1494 72.0056 62.9105 72.0052 62.6668V18.6668C72.002 15.8391 70.877 13.1275 68.8775 11.1279C66.878 9.12838 64.1663 8.00335 61.3386 8.00026L61.3381 8ZM69.3381 54.2857C67.3158 51.9853 64.4011 50.667 61.3381 50.667C58.2751 50.667 55.3604 51.9853 53.3381 54.2857V18.6674C53.3381 15.8094 54.8627 13.1683 57.3381 11.7393C59.8131 10.3103 62.8627 10.3103 65.3381 11.7393C67.8131 13.1683 69.3381 15.8094 69.3381 18.6674V54.2857Z" fill="#282828"/>
<path d="M28.0044 65.3337H44.0044C45.0651 65.3337 46.0826 64.9123 46.833 64.1618C47.583 63.4118 48.0044 62.3944 48.0044 61.3337V41.3337C48.0044 40.5971 47.4075 40.0002 46.6709 40.0002C45.9348 40.0002 45.3379 40.5971 45.3379 41.3337V61.3337C45.3379 61.6873 45.1973 62.0261 44.9473 62.2765C44.6973 62.5265 44.358 62.6667 44.0044 62.6667H28.0044C27.2682 62.6667 26.6709 62.0698 26.6709 61.3337V32C26.6709 31.2638 27.2682 30.6665 28.0044 30.6665H44.0044C44.358 30.6665 44.6973 30.8071 44.9473 31.0571C45.1973 31.3071 45.3379 31.6464 45.3379 32V34.6665H30.6704C29.9343 34.6665 29.3374 35.2638 29.3374 36C29.3374 36.7362 29.9343 37.3335 30.6704 37.3335H46.6705C47.024 37.3335 47.3633 37.1929 47.6133 36.9429C47.8633 36.6929 48.0039 36.3536 48.0039 36V32C48.0039 30.9393 47.5825 29.9218 46.8325 29.1714C46.0821 28.4214 45.0646 28 44.0039 28H28.0039C26.9432 28 25.9257 28.4214 25.1753 29.1714C24.4253 29.9219 24.0039 30.9393 24.0039 32V61.3337C24.0039 62.3944 24.4253 63.4119 25.1753 64.1618C25.9258 64.9123 26.9432 65.3337 28.0039 65.3337L28.0044 65.3337Z" fill="#282828"/>
<path d="M30.6707 56C29.9345 56 29.3376 56.5969 29.3376 57.3335C29.3376 58.0696 29.9345 58.6665 30.6707 58.6665H41.3376C42.0738 58.6665 42.6707 58.0696 42.6707 57.3335C42.6707 56.5969 42.0738 56 41.3376 56H30.6707Z" fill="#282828"/>
<path d="M16.0044 65.3337H18.6709C19.3785 65.3337 20.0566 65.0524 20.5566 64.5524C21.0566 64.0524 21.3379 63.3742 21.3379 62.6667V16.0004C21.3379 15.6433 21.3379 15.2406 18.5098 10.0299C18.2553 9.62856 17.8129 9.38525 17.3379 9.38525C16.8624 9.38525 16.4205 9.62856 16.1655 10.0299C13.3379 15.2406 13.3379 15.6433 13.3379 16.0004V50.6667C13.3379 51.4033 13.9348 52.0002 14.6709 52.0002C15.4075 52.0002 16.0044 51.4033 16.0044 50.6667V16.1878C16.1682 15.7878 16.7031 14.7146 17.3379 13.5012C17.9727 14.7146 18.507 15.7811 18.6714 16.1878L18.6709 54.6667H14.6709C13.9348 54.6667 13.3379 55.264 13.3379 56.0002V62.6667C13.3379 63.3743 13.6187 64.0524 14.1187 64.5524C14.6187 65.0524 15.2972 65.3337 16.0044 65.3337V65.3337ZM16.0044 57.3337H18.6709V62.6671L16.0044 62.6667V57.3337Z" fill="#282828"/>
</svg>
